<svg xmlns="http://www.w3.org/2000/svg" width="31.537" height="31.537" viewBox="0 0 31.537 31.537"><path d="M1746.689,904.481a6.112,6.112,0,1,0-6.112-6.112A6.112,6.112,0,0,0,1746.689,904.481Zm0-10.435a4.322,4.322,0,1,1-4.322,4.323A4.327,4.327,0,0,1,1746.689,894.046Z" transform="translate(-1730.921 -885.541)" fill="#231f20"/><path d="M1725.037,901.245c.195-.013.39-.026.583-.046.086-.009.17-.022.255-.032.184-.022.368-.044.55-.072.082-.013.163-.03.245-.044.183-.031.367-.063.548-.1.076-.016.151-.035.226-.052.186-.042.371-.084.554-.132.067-.018.133-.038.2-.057.19-.053.38-.106.567-.166.058-.018.115-.039.173-.058.194-.064.388-.131.579-.2l.144-.057c.2-.077.4-.156.592-.241l.115-.052c.2-.09.4-.183.6-.282l.088-.045q.309-.156.61-.324l.065-.037q.311-.176.614-.365l.043-.027q.312-.2.613-.408l.024-.017q.311-.218.609-.45l.009-.007q.3-.237.6-.489h0a15.769,15.769,0,1,0-21.66-1.071h0q.269.281.55.548v0q.281.266.574.518l.007.006q.289.248.59.482l.018.014q.295.229.6.443l.032.023q.3.208.6.4l.052.033q.3.187.6.36l.073.042q.3.166.6.318l.1.051c.195.1.393.188.592.277l.126.057c.192.083.386.161.581.237l.155.061c.188.07.377.135.568.2.061.021.122.042.183.062.183.058.368.111.554.163.071.02.141.041.212.06.179.047.36.088.542.129.079.018.158.038.239.055.176.037.355.067.533.1.087.015.172.033.259.046.178.028.357.049.537.07.089.011.177.025.267.034.187.019.377.032.567.044.083.006.165.015.248.019q.406.021.819.021h.039q.4,0,.792-.021C1724.883,901.259,1724.959,901.251,1725.037,901.245Zm1.029-1.907c-.187.028-.375.051-.565.072l-.147.016c-.174.017-.35.03-.526.04l-.167.011c-.226.011-.453.017-.681.017h0c-.231,0-.46-.006-.688-.017-.05,0-.1-.007-.148-.01-.182-.011-.364-.024-.544-.041l-.137-.015c-.193-.021-.384-.044-.574-.073l-.073-.011a13.927,13.927,0,0,1-6.824-3.115,11.928,11.928,0,0,1,17.976,0,13.925,13.925,0,0,1-6.821,3.115ZM1710,885.516a13.978,13.978,0,1,1,24.258,9.46,13.705,13.705,0,0,0-20.56,0A13.924,13.924,0,0,1,1710,885.516Z" transform="translate(-1708.21 -869.748)" fill="#231f20"/></svg>