<svg xmlns="http://www.w3.org/2000/svg" width="33.017" height="30.799" viewBox="0 0 33.017 30.799"><path d="M1477.295,876.225l2.592,27.22h-29.08l2.592-27.22h23.9m1.628-1.79h-27.152l-2.933,30.8h33.017l-2.933-30.8Z" transform="translate(-1448.838 -874.435)" fill="#231f20"/><path d="M1492.069,896.249h-4.91v1.79h1.532a5.566,5.566,0,0,1-5.109,5.28h-.965a5.566,5.566,0,0,1-5.106-5.231h1.56V896.3h-4.91v1.79h1.554c.117,3.7,3.353,7.021,6.9,7.021h.965c3.565,0,6.814-3.35,6.9-7.07h1.583Z" transform="translate(-1466.607 -889.741)" fill="#231f20"/></svg>