<svg xmlns="http://www.w3.org/2000/svg" width="32.057" height="31.979" viewBox="0 0 32.057 31.979"><path d="M721.367,129.068a9.29,9.29,0,0,0-9.279,9.281v13.42a9.288,9.288,0,0,0,9.279,9.279h13.5a9.288,9.288,0,0,0,9.279-9.279v-13.42a9.29,9.29,0,0,0-9.279-9.281Zm0,2.749h13.5a6.488,6.488,0,0,1,6.532,6.532v13.42a6.486,6.486,0,0,1-6.532,6.529h-13.5a6.484,6.484,0,0,1-6.53-6.529v-13.42A6.486,6.486,0,0,1,721.367,131.817Zm15.353,2.749a1.922,1.922,0,1,0,1.922,1.922A1.922,1.922,0,0,0,736.721,134.566Zm-8.6,2.258a8.234,8.234,0,1,0,8.236,8.234A8.254,8.254,0,0,0,728.117,136.824Zm0,2.749a5.485,5.485,0,1,1-5.484,5.484A5.465,5.465,0,0,1,728.117,139.573Z" transform="translate(-712.089 -129.068)" fill="#202020"/></svg>