<svg xmlns="http://www.w3.org/2000/svg" width="31.501" height="25.599" viewBox="0 0 31.501 25.599"><path d="M657.331,142a12.924,12.924,0,0,1-3.711,1.018,6.486,6.486,0,0,0,2.841-3.575,12.922,12.922,0,0,1-4.1,1.568,6.468,6.468,0,0,0-11.011,5.894,18.347,18.347,0,0,1-13.321-6.752,6.47,6.47,0,0,0,2,8.628,6.428,6.428,0,0,1-2.928-.808c0,.027,0,.054,0,.081a6.467,6.467,0,0,0,5.184,6.337,6.5,6.5,0,0,1-2.918.111,6.471,6.471,0,0,0,6.038,4.488,12.972,12.972,0,0,1-8.028,2.766,13.231,13.231,0,0,1-1.542-.09,18.3,18.3,0,0,0,9.907,2.9c11.887,0,18.386-9.847,18.386-18.388,0-.28-.007-.558-.018-.835A13.162,13.162,0,0,0,657.33,142" transform="translate(-625.83 -138.971)" fill="#202020"/></svg>