<?xml version="1.0" standalone="no"?>
<!DOCTYPE svg PUBLIC "-//W3C//DTD SVG 20010904//EN"
 "http://www.w3.org/TR/2001/REC-SVG-20010904/DTD/svg10.dtd">
<svg version="1.0" xmlns="http://www.w3.org/2000/svg"
 width="3375.000000pt" height="1414.000000pt" viewBox="0 0 3375.000000 1414.000000"
 preserveAspectRatio="xMidYMid meet">

<g transform="translate(0.000000,1414.000000) scale(0.100000,-0.100000)"
fill="#000000" stroke="none">
<path d="M6870 11220 l0 -2920 245 0 245 0 0 365 c0 214 4 365 9 365 5 0 25
-29 45 -64 129 -231 372 -451 651 -591 310 -154 596 -211 938 -187 337 25 585
92 823 223 254 141 478 373 627 649 339 630 381 1686 96 2402 -265 665 -753
1054 -1429 1138 -122 15 -407 12 -529 -5 -491 -70 -950 -337 -1179 -687 -20
-31 -40 -57 -44 -58 -5 0 -8 515 -8 1145 l0 1145 -245 0 -245 0 0 -2920z
m2170 933 c433 -70 778 -339 980 -765 86 -182 144 -390 182 -653 17 -121 17
-617 -1 -745 -92 -670 -422 -1118 -952 -1294 -159 -53 -268 -70 -464 -70 -250
-1 -414 37 -615 140 -487 249 -773 799 -806 1547 -25 559 152 1101 472 1446
312 335 728 472 1204 394z"/>
<path d="M11700 13780 l0 -360 270 0 270 0 0 360 0 360 -270 0 -270 0 0 -360z"/>
<path d="M1668 12709 c-459 -33 -765 -199 -985 -536 -53 -82 -173 -317 -173
-340 0 -7 -4 -13 -10 -13 -6 0 -10 137 -10 390 l0 390 -245 0 -245 0 0 -4990
0 -4990 245 0 245 0 0 365 c0 201 4 365 8 365 4 0 17 -19 29 -42 37 -76 143
-215 231 -303 335 -337 821 -523 1307 -501 338 16 598 80 845 207 106 55 280
171 280 187 0 4 -20 18 -45 31 -122 65 -225 243 -225 389 l0 44 -74 -69 c-175
-164 -384 -268 -646 -324 -138 -30 -418 -32 -552 -6 -267 53 -478 165 -663
351 -321 324 -495 818 -495 1409 0 274 34 501 111 730 90 268 210 468 394 653
167 168 311 260 506 324 235 77 523 84 783 19 507 -128 869 -550 1002 -1166
l17 -82 51 45 c28 25 80 59 116 77 61 30 70 32 178 32 108 0 113 1 107 20 -31
107 -37 145 -31 197 5 51 1 71 -30 156 -50 133 -113 266 -174 367 -285 472
-706 749 -1246 820 -150 20 -412 19 -555 -1 -502 -70 -942 -329 -1193 -703
l-36 -54 3 2324 c3 2537 0 2375 58 2649 99 457 319 771 656 932 162 78 399
128 603 128 l70 0 0 265 0 265 -52 -1 c-29 -1 -101 -5 -160 -10z"/>
<path d="M3815 12599 c-438 -55 -809 -235 -1085 -525 -393 -414 -601 -1055
-577 -1779 32 -923 400 -1585 1062 -1910 277 -135 567 -199 905 -199 783 1
1403 403 1715 1111 297 676 280 1650 -39 2308 -277 568 -751 907 -1384 989
-135 17 -474 20 -597 5z m550 -444 c560 -87 932 -459 1084 -1085 136 -563 89
-1212 -121 -1660 -202 -429 -516 -680 -963 -767 -124 -24 -403 -24 -535 0
-500 92 -863 425 -1040 954 -83 250 -115 473 -114 808 0 205 4 275 22 390 52
333 151 604 304 827 290 426 791 621 1363 533z"/>
<path d="M14925 12595 c-353 -56 -649 -224 -995 -562 -58 -57 -106 -103 -107
-103 -2 0 -3 128 -3 285 l0 285 -245 0 -245 0 0 -4029 0 -4029 34 -21 c116
-72 206 -241 206 -385 0 -154 -66 -270 -215 -383 l-30 -23 30 -22 c69 -53 134
-121 160 -169 93 -172 67 -377 -66 -524 -28 -30 -66 -64 -85 -75 l-34 -22 0
-154 0 -154 245 0 245 0 0 794 0 794 397 376 c248 235 400 373 406 367 5 -5
359 -531 787 -1168 l778 -1158 276 -3 276 -2 -53 82 c-30 46 -424 648 -877
1338 -452 690 -824 1260 -825 1265 -2 6 280 282 626 615 345 333 699 673 786
757 l158 152 -337 1 -338 0 -1027 -996 -1028 -995 -3 2973 c-2 2021 1 3025 8
3136 28 428 148 729 390 972 243 245 535 364 895 363 368 -1 623 -88 801 -275
125 -130 183 -251 237 -488 21 -94 21 -106 24 -1602 l4 -1508 245 0 245 0 -4
1573 c-3 1554 -4 1573 -25 1682 -38 199 -107 362 -213 505 -220 297 -539 475
-960 535 -127 18 -432 18 -544 0z"/>
<path d="M18779 12595 c-442 -61 -791 -254 -987 -549 -219 -330 -241 -836 -49
-1176 52 -93 194 -239 292 -303 235 -150 456 -225 1048 -351 522 -112 673
-156 844 -246 118 -61 202 -128 259 -204 58 -76 67 -94 95 -186 29 -94 31
-251 5 -350 -80 -303 -346 -514 -736 -587 -126 -23 -460 -23 -605 0 -397 64
-647 241 -805 572 -34 73 -94 246 -120 353 l-11 42 -246 0 -246 0 7 -87 c13
-185 64 -361 156 -548 273 -551 855 -835 1614 -786 452 28 796 130 1066 315
93 63 222 191 279 275 142 209 208 478 182 741 -44 452 -279 725 -796 925
-159 61 -303 103 -720 206 -652 161 -853 243 -1020 420 -76 81 -118 160 -140
265 -18 83 -19 132 -4 227 64 417 481 652 1077 607 327 -25 551 -112 722 -280
146 -144 210 -278 275 -577 l5 -23 245 0 c227 0 245 1 245 18 0 30 -27 173
-49 259 -67 262 -208 516 -371 666 -220 204 -515 324 -905 367 -125 14 -490
11 -606 -5z"/>
<path d="M23025 12594 c-623 -83 -1093 -416 -1370 -969 -186 -371 -265 -739
-265 -1232 0 -575 123 -1034 379 -1414 247 -367 615 -620 1067 -733 299 -75
653 -81 954 -16 456 98 848 364 1109 752 198 296 322 663 367 1090 22 213 15
584 -16 793 -109 741 -454 1277 -995 1545 -209 104 -410 163 -650 190 -125 14
-460 11 -580 -6z m441 -424 c145 -12 285 -40 389 -77 582 -209 905 -815 905
-1699 0 -594 -169 -1083 -484 -1400 -185 -186 -375 -287 -649 -346 -138 -29
-425 -31 -567 -4 -647 125 -1042 625 -1136 1434 -20 172 -14 574 10 727 127
786 549 1271 1181 1355 71 9 105 12 196 18 14 1 84 -3 155 -8z"/>
<path d="M27610 12590 c-334 -60 -613 -220 -947 -543 l-123 -119 0 286 0 286
-245 0 -245 0 0 -2100 0 -2100 245 0 245 0 0 1229 c0 760 4 1277 10 1357 33
400 155 690 395 929 148 148 300 241 495 303 132 42 231 55 400 55 605 -2 928
-248 1037 -789 16 -82 18 -199 20 -1586 l4 -1498 244 0 245 0 0 1474 c0 930
-4 1521 -10 1602 -31 375 -137 614 -377 845 -197 190 -442 309 -748 365 -60
11 -164 18 -315 20 -189 3 -242 0 -330 -16z"/>
<path d="M31500 12595 c-730 -100 -1170 -545 -1170 -1185 0 -305 93 -545 281
-726 207 -198 490 -318 1029 -434 645 -139 752 -167 920 -239 131 -56 194 -96
281 -179 127 -120 180 -244 181 -427 2 -311 -190 -570 -516 -696 -235 -91
-617 -113 -915 -53 -380 77 -626 284 -770 648 -27 67 -69 204 -85 279 l-6 27
-249 0 -250 0 6 -57 c65 -722 535 -1225 1253 -1343 307 -50 725 -28 1040 54
417 109 714 310 875 592 97 169 135 330 135 563 -1 559 -296 880 -1015 1101
-55 17 -271 73 -480 125 -535 133 -724 196 -890 300 -241 150 -344 379 -291
645 48 238 211 417 462 509 171 63 388 88 608 71 457 -35 738 -199 896 -524
47 -97 100 -270 100 -328 l0 -28 251 0 251 0 -7 48 c-51 360 -189 666 -390
867 -220 220 -526 350 -930 395 -124 14 -490 11 -605 -5z"/>
<path d="M11730 10400 l0 -2100 245 0 245 0 0 2100 0 2100 -245 0 -245 0 0
-2100z"/>
<path d="M21150 5435 l0 -2925 245 0 244 0 4 1333 c3 1322 4 1333 25 1446 25
131 86 319 132 412 125 249 343 463 591 578 164 76 331 111 533 111 539 0 867
-196 999 -598 76 -230 71 -123 75 -1789 l3 -1493 244 0 245 0 0 1443 c0 1435
-5 1660 -35 1827 -48 260 -149 454 -330 636 -288 290 -688 428 -1189 411 -180
-6 -281 -23 -431 -72 -247 -81 -474 -230 -743 -489 l-122 -118 0 1106 0 1106
-245 0 -245 0 0 -2925z"/>
<path d="M18351 6819 c-367 -39 -694 -181 -906 -395 -230 -232 -341 -567 -306
-921 26 -261 113 -447 282 -608 218 -207 500 -319 1149 -455 715 -150 921
-228 1098 -414 113 -119 157 -235 156 -411 -1 -194 -65 -346 -203 -486 -135
-135 -284 -211 -513 -261 -89 -19 -134 -22 -333 -23 -242 0 -303 7 -474 51
-293 76 -518 267 -646 548 -31 69 -91 248 -115 344 l-11 42 -246 0 -246 0 7
-87 c24 -328 175 -664 400 -894 221 -225 501 -363 861 -426 140 -24 549 -24
725 0 699 97 1135 398 1275 882 71 247 51 564 -50 783 -113 244 -335 428 -685
565 -165 66 -306 106 -738 213 -210 52 -443 115 -517 139 -460 150 -660 353
-659 670 1 194 58 332 193 465 133 131 289 202 521 236 152 22 441 15 578 -15
261 -56 441 -156 571 -316 110 -136 170 -276 217 -512 l4 -23 246 0 247 0 -7
60 c-9 79 -58 277 -92 370 -216 601 -724 895 -1534 889 -91 -1 -203 -6 -249
-10z"/>
<path d="M26891 6819 c-337 -36 -658 -158 -906 -344 -415 -313 -670 -800 -762
-1455 -24 -175 -24 -631 0 -813 83 -616 324 -1087 716 -1399 490 -391 1213
-513 1846 -312 141 45 365 156 479 238 574 413 877 1169 826 2062 -17 297 -57
514 -140 767 -244 735 -794 1178 -1559 1256 -120 13 -378 12 -500 0z m591
-458 c107 -23 246 -70 323 -108 495 -247 766 -826 767 -1638 2 -874 -360
-1508 -976 -1709 -253 -83 -598 -87 -863 -10 -168 49 -284 108 -429 220 -257
199 -449 539 -529 938 -37 183 -45 262 -51 486 -12 424 57 782 210 1095 208
423 530 668 973 740 131 21 447 13 575 -14z"/>
<path d="M31625 6814 c-195 -30 -375 -88 -547 -176 -299 -153 -499 -340 -673
-630 l-20 -33 -3 373 -2 372 -245 0 -245 0 0 -2930 0 -2930 245 0 245 0 0
1157 0 1157 49 -70 c386 -548 1126 -810 1871 -663 302 60 610 219 818 422 345
337 561 835 622 1436 15 151 12 552 -5 714 -47 448 -165 806 -360 1097 -317
473 -842 723 -1510 719 -82 -1 -190 -7 -240 -15z m490 -453 c190 -44 320 -99
468 -197 346 -231 566 -623 632 -1129 24 -183 25 -594 1 -765 -36 -263 -95
-468 -191 -665 -74 -152 -141 -250 -249 -362 -194 -205 -411 -324 -693 -380
-125 -25 -426 -25 -540 0 -497 107 -867 466 -1052 1022 -83 249 -117 501 -108
805 11 360 77 658 208 925 207 427 545 687 984 761 121 20 424 12 540 -15z"/>
<path d="M5618 6257 c-128 -36 -194 -138 -219 -336 -20 -160 3 -331 97 -713
l66 -268 144 0 143 0 10 38 c53 204 94 372 115 469 69 332 57 570 -37 709 -60
90 -200 134 -319 101z"/>
<path d="M10694 6252 c-120 -43 -178 -134 -204 -322 -22 -160 1 -338 96 -722
l66 -268 144 0 143 0 10 38 c124 470 155 634 155 832 1 177 -17 257 -76 346
-64 95 -215 139 -334 96z"/>
<path d="M4837 6120 c-249 -63 -292 -310 -117 -675 58 -121 267 -450 392 -620
15 -19 16 -19 74 7 32 14 92 36 132 49 42 14 72 28 72 36 0 33 -42 428 -56
523 -52 362 -157 586 -311 664 -40 20 -136 28 -186 16z"/>
<path d="M6435 6121 c-53 -14 -91 -39 -141 -94 -133 -145 -197 -371 -249 -876
-13 -135 -24 -246 -22 -247 1 -1 29 -9 62 -19 33 -9 91 -30 129 -46 57 -24 72
-27 82 -17 7 7 82 117 166 243 167 249 250 400 300 546 28 83 32 107 32 204 1
96 -2 116 -22 157 -27 55 -79 103 -139 130 -48 21 -152 31 -198 19z"/>
<path d="M9915 6117 c-93 -31 -155 -82 -186 -152 -59 -134 -14 -356 122 -601
68 -122 348 -544 365 -551 7 -2 29 4 51 15 21 11 77 32 126 48 48 15 87 33 87
40 0 39 -53 515 -66 589 -56 327 -155 523 -302 599 -44 23 -147 29 -197 13z"/>
<path d="M11520 6121 c-165 -54 -281 -262 -340 -610 -19 -111 -74 -601 -68
-606 2 -1 30 -10 63 -20 33 -9 91 -30 129 -46 57 -24 72 -27 82 -17 7 7 82
117 166 243 213 319 299 493 328 665 31 185 -23 313 -157 372 -48 21 -164 32
-203 19z"/>
<path d="M4120 5711 c-151 -49 -236 -181 -209 -328 29 -160 173 -343 419 -534
117 -91 419 -309 429 -309 4 0 23 16 42 36 18 19 66 60 106 90 l71 55 -100
204 c-187 385 -266 513 -393 641 -99 100 -186 147 -279 151 -34 1 -72 -1 -86
-6z"/>
<path d="M7128 5706 c-115 -41 -235 -152 -347 -322 -62 -93 -342 -637 -340
-661 0 -4 26 -27 57 -50 31 -24 80 -64 109 -89 l52 -46 163 118 c239 172 322
238 432 344 187 181 273 344 252 481 -15 99 -106 201 -204 229 -50 14 -129 12
-174 -4z"/>
<path d="M9210 5711 c-220 -72 -275 -281 -134 -512 47 -78 192 -229 308 -323
106 -85 453 -336 464 -336 5 0 24 16 43 36 18 19 66 60 106 91 l72 55 -25 46
c-13 26 -71 142 -129 259 -57 116 -125 247 -151 290 -154 255 -316 393 -468
400 -34 1 -72 -1 -86 -6z"/>
<path d="M12218 5707 c-117 -44 -235 -154 -348 -323 -61 -92 -340 -634 -340
-661 0 -5 12 -16 28 -25 15 -9 56 -42 92 -74 36 -32 73 -64 82 -72 19 -16 -11
-35 353 231 171 125 382 330 438 427 53 91 81 188 74 255 -10 94 -71 181 -160
227 -53 27 -166 34 -219 15z"/>
<path d="M3542 5064 c-120 -60 -188 -210 -153 -340 36 -135 218 -275 492 -380
81 -31 595 -184 618 -184 5 0 14 14 21 31 8 17 38 70 67 117 30 48 55 90 56
94 4 14 -423 414 -523 490 -109 82 -270 168 -352 187 -83 20 -168 14 -226 -15z"/>
<path d="M7610 5071 c-121 -39 -276 -135 -420 -260 -71 -61 -413 -390 -418
-402 -2 -4 17 -38 41 -75 25 -38 57 -93 71 -122 17 -34 32 -52 40 -49 7 3 104
31 216 62 542 152 773 273 866 457 19 37 24 63 24 120 0 119 -55 214 -152 262
-43 22 -65 26 -132 25 -49 0 -103 -7 -136 -18z"/>
<path d="M8640 5069 c-94 -42 -159 -137 -167 -244 -7 -80 9 -131 61 -202 74
-101 226 -198 437 -279 81 -30 595 -184 618 -184 4 0 16 18 26 39 9 22 41 77
70 123 l53 82 -174 169 c-201 195 -313 293 -419 366 -85 59 -216 123 -287 140
-74 18 -167 13 -218 -10z"/>
<path d="M12700 5071 c-121 -39 -276 -135 -420 -260 -71 -61 -413 -390 -418
-402 -2 -4 17 -38 41 -75 25 -38 57 -93 71 -122 17 -34 32 -52 40 -49 7 3 104
31 216 62 544 152 774 275 869 462 30 61 29 170 -3 238 -32 71 -68 109 -128
139 -43 22 -65 26 -132 25 -49 0 -103 -7 -136 -18z"/>
<path d="M3325 4317 c-141 -36 -217 -135 -219 -282 -1 -91 22 -151 79 -204
151 -139 400 -174 968 -134 l247 17 0 34 c0 18 10 80 21 138 12 58 20 107 17
109 -10 10 -455 207 -542 239 -216 81 -448 114 -571 83z"/>
<path d="M7763 4310 c-102 -22 -257 -75 -403 -138 -233 -100 -385 -173 -384
-185 1 -6 8 -48 17 -92 9 -44 18 -101 22 -127 7 -57 -17 -51 310 -74 477 -33
752 6 888 125 l37 33 35 -31 c148 -130 405 -163 958 -124 l247 17 0 33 c0 17
9 80 21 139 11 58 19 108 17 109 -8 9 -378 173 -486 216 -239 96 -463 137
-604 110 -71 -14 -154 -55 -170 -84 -9 -18 -12 -17 -41 11 -18 17 -54 41 -82
53 -72 33 -253 37 -382 9z"/>
<path d="M12858 4311 c-114 -25 -224 -62 -378 -127 -140 -59 -409 -180 -416
-187 -2 -2 2 -31 11 -63 8 -32 19 -92 25 -133 6 -41 13 -77 16 -80 9 -9 470
-40 599 -40 304 -2 517 57 617 168 51 56 68 104 68 188 0 119 -61 219 -162
263 -74 33 -255 38 -380 11z"/>
<path d="M5610 4129 c-88 -15 -196 -73 -265 -143 -152 -155 -188 -383 -92
-586 41 -87 140 -186 227 -227 349 -164 735 74 734 452 -1 186 -76 328 -228
431 -95 64 -252 95 -376 73z"/>
<path d="M10683 4126 c-183 -42 -331 -187 -378 -371 -110 -429 344 -783 736
-574 170 91 264 254 262 454 -1 177 -78 320 -226 420 -102 69 -269 99 -394 71z"/>
<path d="M3610 3570 c-253 -23 -418 -98 -477 -217 -23 -48 -28 -71 -27 -133 1
-215 164 -323 441 -290 177 21 333 74 678 230 83 37 166 74 186 83 l36 15 -18
70 c-10 38 -21 102 -25 141 -5 56 -10 71 -23 71 -9 0 -99 6 -201 14 -256 20
-458 26 -570 16z"/>
<path d="M7470 3574 c-14 -1 -104 -8 -200 -14 -262 -16 -248 -13 -255 -68 -4
-26 -13 -83 -22 -127 -9 -44 -16 -86 -17 -92 -2 -18 408 -203 594 -267 163
-57 283 -79 413 -74 122 4 186 24 239 75 l27 26 41 -35 c56 -49 140 -72 260
-71 173 0 378 60 685 198 94 42 199 88 233 103 62 25 64 27 58 57 -3 16 -12
66 -20 110 -9 44 -15 95 -16 113 0 28 -3 32 -27 32 -16 1 -75 5 -132 10 -503
45 -777 28 -956 -60 -33 -16 -74 -42 -92 -58 l-32 -30 -28 30 c-35 37 -148 91
-233 112 -119 29 -393 45 -520 30z"/>
<path d="M12560 3574 c-14 -1 -104 -8 -200 -14 -262 -16 -248 -13 -255 -68 -4
-26 -13 -83 -22 -127 -9 -44 -16 -86 -17 -92 -2 -20 427 -211 614 -273 170
-57 261 -73 393 -68 136 5 197 28 257 95 47 54 70 118 70 196 0 84 -17 132
-68 188 -101 113 -318 171 -627 167 -66 0 -131 -2 -145 -4z"/>
<path d="M4250 3026 c-282 -82 -368 -112 -498 -172 -172 -79 -274 -161 -338
-270 -26 -43 -29 -59 -29 -129 0 -67 5 -88 27 -131 33 -62 76 -107 132 -137
62 -32 186 -29 286 8 186 68 334 180 662 501 l157 154 -52 83 c-29 45 -61 101
-71 125 -10 23 -22 41 -25 41 -3 -1 -116 -34 -251 -73z"/>
<path d="M6877 3033 c-19 -37 -51 -92 -71 -122 -20 -30 -35 -57 -34 -60 2 -4
87 -88 190 -188 250 -242 388 -353 533 -426 99 -49 167 -67 257 -67 95 0 156
26 212 91 72 84 92 221 45 313 -92 186 -324 309 -869 461 -112 31 -209 59
-216 62 -8 3 -25 -20 -47 -64z"/>
<path d="M9338 3026 c-459 -134 -652 -224 -773 -358 -74 -82 -90 -120 -90
-213 1 -92 23 -149 81 -209 61 -62 107 -80 204 -80 215 2 412 130 827 535
l152 149 -52 83 c-29 45 -61 101 -71 125 -10 23 -22 41 -25 41 -3 -1 -117 -34
-253 -73z"/>
<path d="M11969 3038 c-17 -34 -49 -89 -71 -121 -22 -32 -38 -61 -36 -66 5
-11 345 -339 418 -402 147 -127 310 -228 429 -263 85 -25 201 -21 259 8 81 42
133 114 151 213 32 169 -89 319 -361 448 -121 57 -247 100 -515 176 -120 34
-223 64 -230 66 -7 3 -25 -22 -44 -59z"/>
<path d="M4660 2649 c-52 -38 -156 -114 -230 -169 -361 -266 -520 -468 -520
-662 0 -155 128 -280 286 -281 138 -1 290 113 433 327 78 118 357 665 344 676
-5 4 -35 27 -68 52 -33 26 -78 65 -100 87 -21 23 -42 41 -45 41 -3 -1 -48 -32
-100 -71z"/>
<path d="M6624 2689 c-16 -17 -64 -58 -106 -92 -43 -33 -78 -61 -78 -62 0 -1
49 -103 109 -226 132 -274 202 -396 293 -517 85 -112 151 -172 242 -217 123
-62 248 -44 342 49 176 177 75 440 -281 736 -79 66 -477 360 -487 360 -3 0
-17 -14 -34 -31z"/>
<path d="M9665 2588 c-324 -235 -464 -358 -559 -491 -69 -97 -98 -169 -104
-258 -4 -67 -1 -84 20 -130 31 -68 78 -115 147 -147 172 -80 368 28 551 305
76 113 355 663 342 673 -4 3 -32 25 -62 47 -30 23 -75 62 -100 87 -24 25 -47
46 -50 45 -3 0 -86 -59 -185 -131z"/>
<path d="M11714 2689 c-16 -17 -64 -58 -106 -92 -43 -33 -78 -62 -78 -63 0 -1
51 -107 113 -235 170 -349 260 -495 387 -620 90 -89 188 -139 275 -139 90 0
151 24 211 85 101 101 111 219 30 379 -74 148 -205 282 -458 470 -184 136
-335 246 -340 246 -2 0 -17 -14 -34 -31z"/>
<path d="M4973 2222 c-289 -432 -361 -600 -351 -816 3 -78 8 -99 31 -139 65
-110 218 -165 350 -125 52 16 137 94 180 166 97 161 144 365 187 802 12 118
22 221 23 228 1 8 -37 26 -101 47 -56 19 -115 41 -132 50 -16 8 -30 15 -32 15
-2 0 -71 -103 -155 -228z"/>
<path d="M6240 2429 c-25 -11 -83 -34 -130 -50 -81 -27 -85 -30 -83 -56 42
-488 84 -736 154 -905 40 -97 81 -158 144 -216 57 -53 106 -72 182 -72 89 0
150 25 213 89 71 70 86 120 77 255 -9 132 -52 257 -149 431 -51 92 -349 544
-358 544 -3 1 -25 -9 -50 -20z"/>
<path d="M10052 2206 c-182 -271 -278 -451 -318 -594 -22 -80 -26 -108 -22
-195 3 -90 7 -108 31 -149 50 -86 148 -138 260 -138 126 0 223 78 303 243 76
157 114 342 154 737 11 113 21 213 23 223 2 14 -18 24 -101 52 -56 19 -115 41
-132 50 -16 8 -30 15 -32 15 -2 0 -76 -110 -166 -244z"/>
<path d="M11330 2429 c-25 -11 -83 -34 -130 -50 -75 -25 -85 -31 -83 -52 0
-12 9 -99 18 -192 53 -555 124 -791 280 -933 57 -53 106 -72 183 -72 108 0
218 64 264 154 41 80 35 235 -14 381 -28 83 -126 271 -200 387 -104 162 -263
397 -268 397 -3 0 -25 -9 -50 -20z"/>
<path d="M5502 2060 c-93 -375 -95 -389 -96 -600 -1 -207 8 -253 66 -349 47
-76 113 -113 217 -119 178 -10 283 88 323 298 6 32 8 118 5 205 -6 165 -29
291 -115 630 l-48 189 -145 1 -144 1 -63 -256z"/>
<path d="M10592 2065 c-91 -370 -96 -402 -97 -610 0 -201 9 -249 67 -344 47
-76 113 -113 217 -119 232 -13 342 154 328 496 -7 170 -23 260 -101 577 l-62
249 -145 1 -145 1 -62 -251z"/>
<path d="M7240 837 l0 -264 490 -287 c269 -157 500 -286 513 -286 12 0 241
128 507 284 l485 285 3 267 2 267 -22 -15 c-13 -8 -236 -140 -497 -292 -427
-251 -475 -277 -497 -267 -20 9 -838 485 -951 553 l-33 20 0 -265z"/>
</g>
</svg>
